<svg width="400" height="300" viewBox="0 0 400 300" xmlns="http://www.w3.org/2000/svg">
  <defs>
    <linearGradient id="ecommerceGradient" x1="0%" y1="0%" x2="100%" y2="100%">
      <stop offset="0%" style="stop-color:#dc2626" />
      <stop offset="100%" style="stop-color:#ea580c" />
    </linearGradient>
  </defs>
  
  <!-- Background -->
  <rect width="400" height="300" fill="#f8f9fa" rx="10"/>
  <rect x="10" y="10" width="380" height="280" fill="url(#ecommerceGradient)" rx="8" opacity="0.1"/>
  
  <!-- E-commerce interface -->
  <rect x="40" y="40" width="320" height="220" fill="white" rx="8" stroke="#e2e8f0" stroke-width="2"/>
  
  <!-- Header -->
  <rect x="40" y="40" width="320" height="35" fill="#dc2626" rx="8 8 0 0"/>
  <text x="60" y="62" font-family="Poppins, sans-serif" font-size="14" font-weight="600" fill="white">🛒 E-Shop</text>
  
  <!-- Product grid -->
  <rect x="60" y="90" width="80" height="60" fill="#f3f4f6" rx="4"/>
  <rect x="60" y="155" width="60" height="15" fill="#dc2626" rx="2"/>
  <text x="90" y="165" text-anchor="middle" font-family="Arial" font-size="10" fill="white">$29.99</text>
  
  <rect x="160" y="90" width="80" height="60" fill="#f3f4f6" rx="4"/>
  <rect x="160" y="155" width="60" height="15" fill="#dc2626" rx="2"/>
  <text x="190" y="165" text-anchor="middle" font-family="Arial" font-size="10" fill="white">$19.99</text>
  
  <rect x="260" y="90" width="80" height="60" fill="#f3f4f6" rx="4"/>
  <rect x="260" y="155" width="60" height="15" fill="#dc2626" rx="2"/>
  <text x="290" y="165" text-anchor="middle" font-family="Arial" font-size="10" fill="white">$39.99</text>
  
  <!-- Cart icon -->
  <circle cx="320" cy="210" r="15" fill="#10b981"/>
  <text x="320" y="217" text-anchor="middle" font-family="Arial" font-size="12" fill="white">🛒</text>
  <circle cx="330" cy="200" r="6" fill="#ef4444"/>
  <text x="330" y="205" text-anchor="middle" font-family="Arial" font-size="8" fill="white">3</text>
  
  <!-- Project title -->
  <text x="200" y="285" text-anchor="middle" font-family="Poppins, sans-serif" font-size="18" font-weight="600" fill="#2d3748">E-commerce Site</text>
</svg>
